<?xml version="1.0" standalone="no"?>
<!DOCTYPE svg PUBLIC "-//W3C//DTD SVG 20010904//EN"
 "http://www.w3.org/TR/2001/REC-SVG-20010904/DTD/svg10.dtd">
<svg version="1.0" xmlns="http://www.w3.org/2000/svg"
 width="512.000000pt" height="512.000000pt" viewBox="0 0 512.000000 512.000000"
 preserveAspectRatio="xMidYMid meet">

<g transform="translate(0.000000,512.000000) scale(0.100000,-0.100000)"
 stroke="none">
<path d="M3140 4527 c-104 -23 -184 -87 -234 -185 -18 -36 -1120 -2723 -1316
-3210 -49 -123 -63 -194 -50 -264 28 -145 136 -251 284 -279 138 -25 290 51
355 179 19 38 1300 3165 1348 3292 60 157 10 327 -121 413 -84 56 -173 74
-266 54z"/>
<path d="M1198 3857 c-31 -14 -79 -43 -105 -65 -111 -94 -1032 -1029 -1051
-1068 -36 -70 -48 -155 -33 -226 7 -34 22 -80 33 -102 13 -26 211 -232 547
-568 468 -469 533 -530 586 -555 252 -115 526 91 483 363 -5 31 -18 75 -29 97
-13 27 -161 182 -412 435 l-392 392 392 393 c251 252 399 407 412 434 84 169
9 379 -167 464 -71 35 -189 37 -264 6z"/>
<path d="M3694 3866 c-51 -16 -123 -65 -159 -108 -82 -97 -101 -256 -44 -371
13 -27 161 -182 412 -434 l392 -393 -392 -392 c-251 -253 -399 -408 -412 -435
-11 -22 -24 -66 -29 -97 -43 -272 231 -478 483 -363 53 25 118 86 586 555 336
336 534 542 547 568 11 22 26 68 33 102 15 71 3 155 -33 226 -13 26 -211 232
-547 568 -592 594 -576 580 -721 585 -43 2 -93 -3 -116 -11z"/>
</g>
</svg>
