<?xml version="1.0" standalone="no"?>
<!DOCTYPE svg PUBLIC "-//W3C//DTD SVG 20010904//EN"
 "http://www.w3.org/TR/2001/REC-SVG-20010904/DTD/svg10.dtd">
<svg version="1.0" xmlns="http://www.w3.org/2000/svg"
 width="512.000000pt" height="512.000000pt" viewBox="0 0 512.000000 512.000000"
 preserveAspectRatio="xMidYMid meet">

<g transform="translate(0.000000,512.000000) scale(0.100000,-0.100000)"
 stroke="none">
<path d="M1273 5106 c-94 -30 -171 -93 -212 -174 -36 -70 -41 -142 -41 -580
l0 -424 -66 61 c-83 76 -150 103 -252 103 -120 0 -164 -28 -363 -229 -177
-179 -217 -234 -264 -365 -70 -191 -93 -449 -61 -667 83 -560 419 -1136 1017
-1742 603 -610 1161 -954 1734 -1066 130 -25 438 -25 555 1 129 28 261 79 337
129 84 56 373 347 402 404 27 54 40 141 30 204 -17 104 -34 126 -383 476 -382
383 -389 388 -531 388 -117 0 -170 -28 -304 -160 -145 -142 -178 -154 -321
-114 -162 44 -377 169 -559 323 -93 79 -302 290 -339 343 l-23 33 1618 2 1618
3 56 26 c72 34 134 96 168 168 l26 56 0 1280 0 1280 -27 55 c-35 71 -97 133
-167 168 l-56 27 -1775 2 c-1449 1 -1783 -1 -1817 -11z m3501 -194 c-22 -20
-393 -359 -823 -752 -430 -393 -794 -721 -808 -729 -37 -19 -117 -17 -150 4
-14 10 -182 160 -372 334 -190 174 -554 507 -808 739 -254 232 -465 427 -468
432 -4 7 590 10 1732 10 l1738 -1 -41 -37z m-2885 -706 c356 -324 654 -596
664 -606 17 -16 -9 -41 -578 -561 -328 -299 -600 -544 -603 -544 -11 1 -40
115 -41 158 -2 63 26 108 134 218 132 134 160 187 160 304 0 131 -20 163 -245
390 l-190 191 0 500 c0 274 3 516 6 537 7 37 7 37 27 20 12 -10 311 -283 666
-607z m3061 -621 c0 -671 -4 -1225 -8 -1232 -5 -8 -234 194 -682 603 -371 339
-676 619 -678 624 -5 14 1352 1249 1360 1236 4 -6 8 -560 8 -1231z m-4144 307
c16 -11 163 -155 326 -319 196 -197 302 -311 313 -335 35 -85 13 -133 -120
-269 -137 -139 -160 -185 -159 -319 1 -76 6 -111 28 -175 91 -266 243 -493
510 -761 225 -225 395 -353 598 -449 159 -75 240 -98 348 -99 133 -1 178 21
320 159 138 134 183 155 268 120 40 -17 626 -593 663 -652 24 -39 27 -118 6
-159 -8 -16 -84 -97 -169 -180 -161 -159 -198 -185 -332 -230 -158 -54 -383
-70 -567 -40 -516 84 -1126 457 -1701 1042 -458 467 -789 982 -913 1424 -46
163 -58 268 -52 444 6 185 25 270 88 405 35 75 53 98 191 238 84 85 162 160
173 166 55 29 132 25 181 -11z m3339 -1062 c352 -321 647 -589 655 -596 12
-12 -246 -14 -1642 -14 l-1656 0 -26 46 c-14 26 -26 50 -26 55 0 10 1229 1133
1244 1136 6 2 51 -34 101 -78 101 -91 136 -112 217 -128 119 -25 212 12 348
138 l85 79 30 -27 c17 -16 318 -290 670 -611z"/>
</g>
</svg>
